<svg xmlns="http://www.w3.org/2000/svg" viewBox="0 0 192 192" width="192" height="192">
  <defs>
    <linearGradient id="g" x1="0" y1="0" x2="1" y2="1">
      <stop offset="0%" stop-color="#34d399"/>
      <stop offset="55%" stop-color="#10b981"/>
      <stop offset="100%" stop-color="#0d9488"/>
    </linearGradient>
  </defs>
  <rect width="192" height="192" rx="44" fill="url(#g)"/>
  <path d="M40 74h112a6 6 0 0 1 6 6v8a6 6 0 0 1-6 6H40a6 6 0 0 1-6-6v-8a6 6 0 0 1 6-6z" fill="#ffffff" opacity=".92"/>
  <path d="M48 98h96v42a10 10 0 0 1-10 10H58a10 10 0 0 1-10-10V98z" fill="#ffffff" opacity=".78"/>
  <path d="M66 74V62a16 16 0 0 1 16-16h28a16 16 0 0 1 16 16v12" fill="none" stroke="#ffffff" stroke-width="9" stroke-linecap="round" opacity=".92"/>
  <g fill="#0f766e">
    <rect x="66" y="112" width="24" height="8" rx="4"/>
    <rect x="66" y="128" width="44" height="8" rx="4"/>
    <rect x="102" y="112" width="24" height="8" rx="4"/>
  </g>
</svg>
